<svg xmlns="http://www.w3.org/2000/svg" xmlns:xlink="http://www.w3.org/1999/xlink" viewBox="62.48002624511719 10.755891799926758 199.9076385498047 141.6848907470703" width="282.18624794180926" height="200"><path d="M 89.535,53.285 C 89.535,56.209 89.535,56.209 89.535,59.133" stroke-width="5.459" stroke="black" fill="none" stroke-linecap="round"></path><path d="M 89.535,59.133 C 89.535,64.188 89.535,64.188 89.535,69.242" stroke-width="3.876" stroke="black" fill="none" stroke-linecap="round"></path><path d="M 89.535,69.242 C 89.535,72.369 89.535,72.369 89.535,75.496" stroke-width="3.992" stroke="black" fill="none" stroke-linecap="round"></path><path d="M 89.535,75.496 C 89.535,80.090 89.535,80.090 89.535,84.684" stroke-width="3.747" stroke="black" fill="none" stroke-linecap="round"></path><path d="M 89.535,84.684 C 89.535,89.102 89.535,89.102 89.535,93.520" stroke-width="3.660" stroke="black" fill="none" stroke-linecap="round"></path><path d="M 89.535,93.520 C 89.535,96.227 89.535,96.227 89.535,98.934" stroke-width="4.064" stroke="black" fill="none" stroke-linecap="round"></path><path d="M 89.535,98.934 C 89.535,101.611 89.535,101.611 89.535,104.289" stroke-width="4.211" stroke="black" fill="none" stroke-linecap="round"></path><path d="M 89.535,104.289 C 89.645,110.005 89.535,106.813 89.535,109.336" stroke-width="4.997" stroke="black" fill="none" stroke-linecap="round"></path><path d="M 89.535,109.336 C 89.298,104.981 89.346,108.179 88.938,100.637" stroke-width="4.860" stroke="black" fill="none" stroke-linecap="round"></path><path d="M 88.938,100.637 C 88.542,97.443 88.671,97.432 88.281,94.238" stroke-width="4.234" stroke="black" fill="none" stroke-linecap="round"></path><path d="M 87.828,53.480 C 90.978,55.081 90.801,55.322 93.773,57.164" stroke-width="5.477" stroke="black" fill="none" stroke-linecap="round"></path><path d="M 93.773,57.164 C 97.062,59.723 97.092,59.637 100.055,62.594" stroke-width="4.167" stroke="black" fill="none" stroke-linecap="round"></path><path d="M 100.055,62.594 C 103.590,66.071 103.625,66.018 106.898,69.754" stroke-width="3.657" stroke="black" fill="none" stroke-linecap="round"></path><path d="M 106.898,69.754 C 111.199,74.647 111.250,74.597 115.375,79.645" stroke-width="3.912" stroke="black" fill="none" stroke-linecap="round"></path><path d="M 115.375,79.645 C 117.587,82.630 117.752,82.489 120.004,85.438" stroke-width="3.915" stroke="black" fill="none" stroke-linecap="round"></path><path d="M 120.004,85.438 C 121.949,87.625 121.909,87.651 124.020,89.688" stroke-width="4.101" stroke="black" fill="none" stroke-linecap="round"></path><path d="M 124.020,89.688 C 127.048,92.742 127.062,92.719 130.230,95.625" stroke-width="4.348" stroke="black" fill="none" stroke-linecap="round"></path><path d="M 130.230,95.625 C 133.054,97.792 132.856,98.004 135.637,100.211" stroke-width="4.542" stroke="black" fill="none" stroke-linecap="round"></path><path d="M 135.637,100.211 C 138.755,105.507 137.499,101.956 139.121,103.953" stroke-width="4.927" stroke="black" fill="none" stroke-linecap="round"></path><path d="M 139.121,103.953 C 139.200,95.216 140.370,98.649 138.867,86.496" stroke-width="5.158" stroke="black" fill="none" stroke-linecap="round"></path><path d="M 138.867,86.496 C 138.462,80.496 138.638,80.489 137.996,74.500" stroke-width="3.621" stroke="black" fill="none" stroke-linecap="round"></path><path d="M 137.996,74.500 C 137.563,69.965 137.643,69.959 137.230,65.422" stroke-width="3.650" stroke="black" fill="none" stroke-linecap="round"></path><path d="M 137.230,65.422 C 136.949,61.514 136.944,61.515 136.758,57.602" stroke-width="4.250" stroke="black" fill="none" stroke-linecap="round"></path><path d="M 136.758,57.602 C 136.628,53.957 136.580,53.959 136.492,50.313" stroke-width="5.005" stroke="black" fill="none" stroke-linecap="round"></path><path d="M 150.465,91.867 C 152.026,94.591 152.408,93.910 154.352,95.953" stroke-width="5.542" stroke="black" fill="none" stroke-linecap="round"></path><path d="M 154.352,95.953 C 156.779,96.637 156.422,97.165 159.258,97.016" stroke-width="5.077" stroke="black" fill="none" stroke-linecap="round"></path><path d="M 159.258,97.016 C 163.416,97.917 163.397,97.647 167.586,97.973" stroke-width="4.648" stroke="black" fill="none" stroke-linecap="round"></path><path d="M 167.586,97.973 C 172.115,98.522 171.725,98.028 175.875,97.238" stroke-width="4.557" stroke="black" fill="none" stroke-linecap="round"></path><path d="M 175.875,97.238 C 178.731,95.963 178.305,96.409 179.965,93.746" stroke-width="4.749" stroke="black" fill="none" stroke-linecap="round"></path><path d="M 179.965,93.746 C 182.017,90.213 181.327,91.298 181.066,87.910" stroke-width="5.034" stroke="black" fill="none" stroke-linecap="round"></path><path d="M 181.066,87.910 C 178.906,85.349 180.107,85.588 176.145,84.496" stroke-width="4.855" stroke="black" fill="none" stroke-linecap="round"></path><path d="M 176.145,84.496 C 172.194,84.104 172.490,83.367 168.234,83.945" stroke-width="4.873" stroke="black" fill="none" stroke-linecap="round"></path><path d="M 168.234,83.945 C 165.071,83.640 165.106,83.820 161.969,83.930" stroke-width="4.786" stroke="black" fill="none" stroke-linecap="round"></path><path d="M 161.969,83.930 C 159.335,84.288 159.356,84.173 156.805,85.012" stroke-width="5.000" stroke="black" fill="none" stroke-linecap="round"></path><path d="M 182.859,90.105 C 181.640,93.889 182.859,93.285 182.859,96.465" stroke-width="5.539" stroke="black" fill="none" stroke-linecap="round"></path><path d="M 182.859,96.465 C 184.944,98.890 183.995,98.865 187.570,100.059" stroke-width="5.518" stroke="black" fill="none" stroke-linecap="round"></path><path d="M 187.570,100.059 C 190.373,101.403 189.967,101.125 192.906,100.934" stroke-width="5.201" stroke="black" fill="none" stroke-linecap="round"></path><path d="M 192.906,100.934 C 196.388,99.974 196.071,100.347 198.965,97.945" stroke-width="5.404" stroke="black" fill="none" stroke-linecap="round"></path><path d="M 198.965,97.945 C 200.914,96.112 200.886,96.433 201.902,93.852" stroke-width="5.510" stroke="black" fill="none" stroke-linecap="round"></path><path d="M 201.902,93.852 C 201.160,89.743 202.945,91.467 203.027,88.656" stroke-width="5.510" stroke="black" fill="none" stroke-linecap="round"></path><path d="M 203.027,88.656 C 207.521,87.590 206.134,86.848 211.852,88.063" stroke-width="5.551" stroke="black" fill="none" stroke-linecap="round"></path><path d="M 211.852,88.063 C 216.287,89.246 216.345,88.553 220.676,90.582" stroke-width="4.693" stroke="black" fill="none" stroke-linecap="round"></path><path d="M 220.676,90.582 C 226.910,90.776 224.152,91.640 227.582,92.852" stroke-width="4.652" stroke="black" fill="none" stroke-linecap="round"></path><path d="M 227.582,92.852 C 225.812,96.209 228.267,94.968 223.391,98.965" stroke-width="5.248" stroke="black" fill="none" stroke-linecap="round"></path><path d="M 223.391,98.965 C 221.464,100.739 221.690,100.900 219.340,102.234" stroke-width="5.317" stroke="black" fill="none" stroke-linecap="round"></path><path d="M 219.340,102.234 C 216.910,103.933 216.931,103.930 214.324,105.348" stroke-width="5.268" stroke="black" fill="none" stroke-linecap="round"></path><path d="M 214.324,105.348 C 207.896,107.176 211.317,106.993 208.152,108.355" stroke-width="5.270" stroke="black" fill="none" stroke-linecap="round"></path><path d="M 208.152,108.355 C 211.717,109.767 208.433,109.643 215.398,110.281" stroke-width="5.439" stroke="black" fill="none" stroke-linecap="round"></path><path d="M 215.398,110.281 C 218.666,110.281 218.607,110.730 221.934,110.281" stroke-width="4.896" stroke="black" fill="none" stroke-linecap="round"></path><path d="M 221.934,110.281 C 224.564,110.281 224.564,110.281 227.195,110.281" stroke-width="4.460" stroke="black" fill="none" stroke-linecap="round"></path><path d="M 227.195,110.281 C 230.539,110.281 230.539,110.281 233.883,110.281" stroke-width="4.610" stroke="black" fill="none" stroke-linecap="round"></path><path d="M 233.883,110.281 C 236.992,110.281 236.992,110.281 240.102,110.281" stroke-width="4.711" stroke="black" fill="none" stroke-linecap="round"></path><path d="M 240.102,110.281 C 242.994,109.479 242.725,110.281 245.348,110.281" stroke-width="4.983" stroke="black" fill="none" stroke-linecap="round"></path><path d="M 245.348,110.281 C 247.234,113.104 247.767,111.106 249.648,113.535" stroke-width="5.389" stroke="black" fill="none" stroke-linecap="round"></path><path d="M 249.648,113.535 C 254.188,114.172 252.533,114.050 255.945,112.172" stroke-width="5.106" stroke="black" fill="none" stroke-linecap="round"></path><path d="M 255.945,112.172 C 256.893,108.641 257.907,109.939 257.086,105.070" stroke-width="5.422" stroke="black" fill="none" stroke-linecap="round"></path><path d="M 257.086,105.070 C 257.089,101.517 257.276,101.555 256.711,98.000" stroke-width="4.258" stroke="black" fill="none" stroke-linecap="round"></path><path d="M 256.711,98.000 C 256.109,92.069 256.075,92.089 255.059,86.215" stroke-width="3.546" stroke="black" fill="none" stroke-linecap="round"></path><path d="M 255.059,86.215 C 253.399,76.786 253.371,76.811 251.234,67.484" stroke-width="2.865" stroke="black" fill="none" stroke-linecap="round"></path><path d="M 251.234,67.484 C 250.042,63.493 250.291,63.431 248.844,59.504" stroke-width="3.402" stroke="black" fill="none" stroke-linecap="round"></path><path d="M 248.844,59.504 C 248.135,56.242 247.892,56.337 246.934,53.172" stroke-width="4.209" stroke="black" fill="none" stroke-linecap="round"></path><path d="M 246.934,53.172 C 245.839,49.603 245.627,49.832 243.828,46.684" stroke-width="5.042" stroke="black" fill="none" stroke-linecap="round"></path><path d="M 243.828,46.684 C 241.761,44.372 242.101,44.176 239.457,42.316" stroke-width="4.252" stroke="black" fill="none" stroke-linecap="round"></path><path d="M 239.457,42.316 C 234.704,37.258 234.380,37.786 229.066,33.512" stroke-width="4.059" stroke="black" fill="none" stroke-linecap="round"></path><path d="M 229.066,33.512 C 222.483,29.395 222.698,29.280 215.445,26.359" stroke-width="3.145" stroke="black" fill="none" stroke-linecap="round"></path><path d="M 215.445,26.359 C 209.585,24.120 209.727,23.893 203.555,22.508" stroke-width="3.212" stroke="black" fill="none" stroke-linecap="round"></path><path d="M 203.555,22.508 C 196.348,20.427 196.357,20.583 188.988,19.285" stroke-width="2.995" stroke="black" fill="none" stroke-linecap="round"></path><path d="M 188.988,19.285 C 179.490,18.181 179.557,17.822 169.973,17.297" stroke-width="2.679" stroke="black" fill="none" stroke-linecap="round"></path><path d="M 169.973,17.297 C 163.699,16.718 163.703,16.714 157.414,16.352" stroke-width="3.043" stroke="black" fill="none" stroke-linecap="round"></path><path d="M 157.414,16.352 C 151.855,16.053 151.860,16.028 146.293,15.918" stroke-width="3.284" stroke="black" fill="none" stroke-linecap="round"></path><path d="M 146.293,15.918 C 141.617,15.874 141.619,15.805 136.941,15.855" stroke-width="3.518" stroke="black" fill="none" stroke-linecap="round"></path><path d="M 136.941,15.855 C 132.398,15.849 132.398,15.837 127.855,15.844" stroke-width="3.566" stroke="black" fill="none" stroke-linecap="round"></path><path d="M 127.855,15.844 C 123.155,15.724 123.158,15.839 118.461,15.836" stroke-width="3.606" stroke="black" fill="none" stroke-linecap="round"></path><path d="M 118.461,15.836 C 113.876,15.595 113.952,15.943 109.449,16.281" stroke-width="3.654" stroke="black" fill="none" stroke-linecap="round"></path><path d="M 109.449,16.281 C 106.070,17.221 106.009,16.814 102.727,18.273" stroke-width="3.830" stroke="black" fill="none" stroke-linecap="round"></path><path d="M 102.727,18.273 C 99.847,19.094 99.880,19.170 97.070,20.180" stroke-width="4.098" stroke="black" fill="none" stroke-linecap="round"></path><path d="M 97.070,20.180 C 93.342,21.730 93.314,21.648 89.660,23.383" stroke-width="3.895" stroke="black" fill="none" stroke-linecap="round"></path><path d="M 89.660,23.383 C 86.252,24.794 86.305,24.888 82.996,26.496" stroke-width="4.378" stroke="black" fill="none" stroke-linecap="round"></path><path d="M 82.996,26.496 C 79.933,27.844 80.103,28.009 77.363,29.813" stroke-width="4.102" stroke="black" fill="none" stroke-linecap="round"></path><path d="M 77.363,29.813 C 75.133,31.382 75.351,31.354 73.832,33.516" stroke-width="4.623" stroke="black" fill="none" stroke-linecap="round"></path><path d="M 73.832,33.516 C 72.759,35.837 72.549,35.620 72.195,38.289" stroke-width="4.799" stroke="black" fill="none" stroke-linecap="round"></path><path d="M 72.195,38.289 C 71.231,43.409 71.031,43.352 70.375,48.547" stroke-width="4.420" stroke="black" fill="none" stroke-linecap="round"></path><path d="M 70.375,48.547 C 69.752,52.537 69.711,52.530 69.156,56.531" stroke-width="3.977" stroke="black" fill="none" stroke-linecap="round"></path><path d="M 69.156,56.531 C 68.581,59.684 68.684,59.695 68.238,62.863" stroke-width="4.006" stroke="black" fill="none" stroke-linecap="round"></path><path d="M 68.238,62.863 C 67.464,67.361 67.755,67.342 67.504,71.848" stroke-width="4.304" stroke="black" fill="none" stroke-linecap="round"></path><path d="M 67.504,71.848 C 67.416,76.002 67.540,75.867 68.391,79.875" stroke-width="4.781" stroke="black" fill="none" stroke-linecap="round"></path><path d="M 68.391,79.875 C 69.702,83.049 69.219,83.168 71.109,86.180" stroke-width="4.156" stroke="black" fill="none" stroke-linecap="round"></path><path d="M 71.109,86.180 C 73.032,90.439 73.025,90.441 75.035,94.660" stroke-width="4.293" stroke="black" fill="none" stroke-linecap="round"></path><path d="M 75.035,94.660 C 76.025,97.010 76.122,96.951 77.289,99.203" stroke-width="4.278" stroke="black" fill="none" stroke-linecap="round"></path><path d="M 77.289,99.203 C 78.505,101.490 78.562,101.413 80.109,103.465" stroke-width="4.676" stroke="black" fill="none" stroke-linecap="round"></path><path d="M 80.109,103.465 C 82.139,105.545 81.934,105.711 84.148,107.645" stroke-width="4.277" stroke="black" fill="none" stroke-linecap="round"></path><path d="M 84.148,107.645 C 86.281,109.855 86.272,109.863 88.375,112.102" stroke-width="4.126" stroke="black" fill="none" stroke-linecap="round"></path><path d="M 88.375,112.102 C 90.536,114.540 90.596,114.484 92.777,116.902" stroke-width="4.084" stroke="black" fill="none" stroke-linecap="round"></path><path d="M 92.777,116.902 C 94.794,119.107 94.829,119.065 96.961,121.152" stroke-width="4.094" stroke="black" fill="none" stroke-linecap="round"></path><path d="M 96.961,121.152 C 98.946,123.127 98.983,123.061 101.156,124.809" stroke-width="4.193" stroke="black" fill="none" stroke-linecap="round"></path><path d="M 101.156,124.809 C 103.714,126.738 103.690,126.736 106.449,128.371" stroke-width="4.121" stroke="black" fill="none" stroke-linecap="round"></path><path d="M 106.449,128.371 C 109.122,129.773 109.037,129.916 111.801,131.164" stroke-width="4.095" stroke="black" fill="none" stroke-linecap="round"></path><path d="M 111.801,131.164 C 115.059,132.731 115.005,132.828 118.215,134.480" stroke-width="3.991" stroke="black" fill="none" stroke-linecap="round"></path><path d="M 118.215,134.480 C 121.398,136.501 121.506,136.305 124.695,138.313" stroke-width="3.926" stroke="black" fill="none" stroke-linecap="round"></path><path d="M 124.695,138.313 C 127.439,139.751 127.408,139.802 130.234,141.082" stroke-width="4.062" stroke="black" fill="none" stroke-linecap="round"></path><path d="M 130.234,141.082 C 132.761,142.413 132.799,142.303 135.414,143.418" stroke-width="4.168" stroke="black" fill="none" stroke-linecap="round"></path><path d="M 135.414,143.418 C 138.742,144.788 138.746,144.680 142.203,145.617" stroke-width="4.069" stroke="black" fill="none" stroke-linecap="round"></path><path d="M 142.203,145.617 C 146.211,146.658 146.180,146.570 150.289,146.980" stroke-width="3.873" stroke="black" fill="none" stroke-linecap="round"></path><path d="M 150.289,146.980 C 157.170,147.265 157.137,147.522 164.055,147.344" stroke-width="3.163" stroke="black" fill="none" stroke-linecap="round"></path><path d="M 164.055,147.344 C 173.525,147.353 173.524,147.452 182.996,147.355" stroke-width="2.794" stroke="black" fill="none" stroke-linecap="round"></path><path d="M 182.996,147.355 C 193.100,147.355 193.100,147.358 203.203,147.355" stroke-width="2.571" stroke="black" fill="none" stroke-linecap="round"></path><path d="M 203.203,147.355 C 215.523,147.355 215.523,147.355 227.844,147.355" stroke-width="2.311" stroke="black" fill="none" stroke-linecap="round"></path><path d="M 227.844,147.355 C 233.635,147.355 233.635,147.355 239.426,147.355" stroke-width="2.949" stroke="black" fill="none" stroke-linecap="round"></path><path d="M 239.426,147.355 C 243.661,147.548 243.650,147.355 247.875,147.355" stroke-width="3.472" stroke="black" fill="none" stroke-linecap="round"></path><path d="M 247.875,147.355 C 251.138,147.283 251.094,147.208 254.293,146.676" stroke-width="3.875" stroke="black" fill="none" stroke-linecap="round"></path></svg>